<?xml version="1.0" standalone="no"?>
<!DOCTYPE svg PUBLIC "-//W3C//DTD SVG 20010904//EN"
 "http://www.w3.org/TR/2001/REC-SVG-20010904/DTD/svg10.dtd">
<svg version="1.0" xmlns="http://www.w3.org/2000/svg"
 width="1024.000000pt" height="1024.000000pt" viewBox="0 0 1024.000000 1024.000000"
 preserveAspectRatio="xMidYMid meet">

<g transform="translate(0.000000,1024.000000) scale(0.100000,-0.100000)"
fill="#2563EB" stroke="none">
<path d="M2585 8910 c-1079 -5 -1193 -7 -1226 -22 -57 -25 -114 -83 -140 -141
l-24 -52 0 -580 0 -580 29 -53 c32 -57 81 -102 143 -130 36 -16 134 -17 1593
-14 l1555 4 90 -32 c186 -65 217 -72 341 -77 116 -5 122 -5 133 15 16 30 6 47
-74 126 -50 49 -82 92 -106 141 l-34 70 -5 555 -5 555 -28 57 c-32 64 -80 111
-146 142 -54 24 -90 24 -2096 16z m2040 -71 c67 -17 137 -86 153 -151 8 -33
12 -202 12 -566 0 -493 1 -522 20 -577 27 -78 60 -132 121 -199 l52 -57 -44 6
c-99 14 -159 29 -264 66 l-109 39 -1559 0 c-1209 0 -1569 3 -1601 12 -53 16
-121 84 -135 134 -7 26 -11 227 -11 582 0 468 2 548 16 580 16 38 64 95 99
115 15 9 262 13 930 17 2209 12 2268 12 2320 -1z"/>
<path d="M7440 8079 c-440 -39 -864 -222 -1148 -494 -144 -137 -220 -256 -258
-405 -21 -84 -15 -213 15 -291 40 -105 152 -239 241 -289 11 -7 15 -26 14 -79
-2 -83 -33 -158 -135 -317 -105 -165 -118 -223 -61 -277 38 -37 75 -49 172
-56 l85 -6 17 -125 c31 -217 84 -352 183 -458 69 -75 129 -114 226 -146 119
-40 289 -44 424 -10 21 5 25 -1 48 -73 38 -114 67 -230 73 -293 l6 -55 -149
-88 c-257 -153 -415 -284 -563 -468 -144 -179 -191 -279 -293 -619 -91 -302
-220 -823 -392 -1585 -20 -88 -41 -178 -46 -199 l-11 -39 -386 6 c-213 4 -499
7 -637 7 l-250 0 -36 133 c-48 172 -362 1301 -477 1712 -50 176 -100 358 -112
405 -29 108 -50 149 -96 190 -74 65 69 60 -1919 60 -1802 0 -1816 0 -1855 -20
-48 -24 -90 -84 -96 -137 -4 -28 14 -106 66 -288 39 -137 116 -410 171 -605
218 -772 449 -1577 464 -1619 36 -102 103 -151 207 -151 35 0 74 -4 88 -8 14
-4 -150 -9 -365 -12 -370 -5 -390 -6 -393 -24 -2 -10 0 -22 5 -26 4 -5 2246
-10 4982 -12 4569 -3 4975 -2 4984 13 6 9 7 24 4 33 -6 14 -31 16 -212 16
-192 0 -206 1 -201 18 93 313 155 876 143 1287 -24 777 -185 1290 -515 1636
-143 150 -291 260 -558 411 l-124 70 38 28 c20 15 61 52 90 83 45 49 51 60 42
77 -17 31 -42 24 -90 -26 -98 -100 -255 -190 -415 -236 -106 -30 -344 -33
-444 -5 -69 19 -181 66 -181 76 0 3 15 18 33 32 72 58 136 236 157 439 13 123
17 366 10 570 l-5 144 35 10 c48 14 130 99 162 166 94 202 45 406 -118 486
-102 50 -221 21 -308 -76 l-38 -42 -91 32 c-236 82 -495 256 -720 483 -153
154 -219 252 -262 392 -23 74 -47 94 -75 60 -11 -13 -10 -26 4 -76 38 -139
122 -266 281 -424 238 -238 487 -408 730 -495 50 -17 105 -39 124 -48 32 -16
34 -16 52 8 84 109 127 140 198 140 53 0 89 -15 130 -53 49 -47 71 -100 71
-178 0 -94 -30 -185 -81 -243 -54 -61 -85 -76 -159 -76 -47 0 -62 -4 -67 -16
-9 -24 10 -49 40 -52 l25 -3 7 -137 c9 -163 0 -519 -15 -617 -34 -223 -101
-354 -192 -372 -40 -8 -48 -46 -17 -79 30 -32 166 -99 244 -120 33 -9 117 -19
188 -21 70 -3 127 -8 127 -12 0 -4 -38 -48 -85 -99 -209 -223 -456 -345 -635
-313 -122 22 -180 87 -180 201 0 30 7 121 15 201 16 165 10 203 -58 425 l-34
111 55 17 c136 42 180 73 147 105 -13 13 -20 14 -48 2 -170 -70 -309 -101
-449 -101 -204 0 -352 74 -446 223 -31 49 -82 162 -82 181 0 2 28 7 63 11 80
9 196 47 271 88 72 39 88 60 64 83 -15 15 -20 14 -71 -15 -88 -50 -183 -81
-268 -88 -73 -6 -79 -5 -79 13 0 10 -7 69 -15 129 -17 130 -31 151 -100 141
-57 -8 -163 9 -187 31 -30 27 -18 68 55 185 85 135 134 233 148 295 9 38 9 92
1 214 -11 186 -3 313 28 427 25 89 68 193 104 250 31 50 33 78 6 92 -26 14
-49 -12 -99 -114 -84 -172 -114 -306 -113 -499 l0 -138 -36 33 c-52 44 -89 94
-122 158 -83 165 -48 351 106 551 170 221 545 443 899 533 179 45 312 59 490
53 170 -6 252 -20 405 -69 337 -108 655 -375 818 -687 74 -141 102 -219 217
-611 103 -353 155 -508 274 -813 80 -203 102 -289 102 -399 0 -97 -11 -149
-48 -222 -48 -94 -187 -218 -323 -286 -61 -30 -79 -48 -73 -70 8 -31 31 -31
96 1 219 110 357 261 404 442 22 87 13 234 -22 352 -14 49 -62 180 -105 291
-101 257 -148 399 -255 768 -121 422 -186 578 -312 753 -80 111 -138 175 -233
255 -205 172 -427 284 -671 336 -85 19 -304 44 -354 41 -11 -1 -58 -5 -105
-10z m1486 -3449 c74 -43 181 -111 237 -151 123 -87 312 -274 385 -382 223
-325 340 -801 356 -1442 9 -361 -47 -881 -127 -1187 l-22 -83 -557 -3 c-307
-1 -558 0 -558 3 0 3 16 65 35 137 89 342 115 635 115 1294 0 475 -1 485 -44
468 -14 -6 -16 -47 -16 -418 0 -428 -9 -644 -36 -881 -19 -170 -63 -399 -100
-518 l-28 -88 -875 3 -876 3 -7 85 c-27 302 -58 489 -138 830 -58 246 -64 288
-57 430 9 182 61 413 168 745 61 192 67 222 45 231 -9 3 -23 1 -31 -6 -33 -28
-189 -570 -225 -788 -18 -103 -21 -155 -18 -272 4 -132 10 -166 61 -385 67
-288 82 -366 102 -510 15 -113 36 -348 31 -353 -7 -7 -376 -6 -376 1 0 4 6 7
14 7 8 0 28 12 46 26 89 75 79 200 -20 258 -32 19 -55 21 -242 24 -126 2 -208
7 -208 13 0 19 262 1137 320 1364 72 281 169 607 215 722 107 267 392 562 720
747 28 16 64 37 82 48 l32 19 -6 -130 c-7 -152 3 -201 53 -259 46 -54 119 -84
219 -90 149 -8 301 49 467 174 89 66 241 219 285 285 15 24 36 42 52 45 70 15
163 47 226 77 l70 34 48 -24 c26 -13 109 -59 183 -103z m-5119 -489 c79 -36
69 -9 307 -863 47 -170 125 -446 172 -615 258 -925 304 -1100 300 -1119 -3
-12 -22 -36 -41 -53 l-36 -31 -1800 0 c-1947 0 -1836 -3 -1888 53 -13 14 -32
52 -43 84 -19 60 -205 709 -443 1553 -75 267 -161 570 -191 673 -30 104 -54
203 -54 222 0 36 38 91 74 105 12 5 827 9 1811 9 1738 1 1791 0 1832 -18z
m2566 -2510 c31 -16 57 -58 57 -91 0 -12 -13 -35 -29 -51 l-29 -29 -876 0
-877 0 17 32 c13 24 15 47 11 95 l-6 63 852 -2 c719 -3 856 -5 880 -17z"/>
<path d="M2128 3136 c-107 -40 -168 -131 -168 -254 0 -286 351 -485 514 -291
107 127 90 317 -41 451 -82 83 -220 126 -305 94z m195 -90 c92 -53 157 -164
157 -265 0 -68 -43 -148 -96 -179 -103 -60 -267 16 -331 155 -54 116 -34 233
51 295 38 28 46 30 108 25 48 -3 79 -12 111 -31z"/>
<path d="M1984 6924 c-358 -60 -673 -299 -804 -611 -35 -84 -80 -236 -80 -272
0 -23 -8 -31 -51 -51 -66 -32 -132 -105 -150 -167 -8 -30 -13 -102 -14 -193 0
-161 7 -187 65 -254 68 -77 199 -113 376 -104 l83 4 15 -41 c29 -87 98 -175
179 -229 70 -46 154 -73 271 -87 91 -12 96 -13 105 -40 5 -16 25 -38 43 -49
28 -18 46 -21 126 -18 92 3 94 4 123 36 48 54 35 129 -28 161 -12 6 -62 11
-112 11 -80 0 -93 -3 -118 -24 -27 -23 -33 -24 -108 -16 -44 5 -102 13 -128
19 -153 35 -272 157 -311 319 -10 39 -16 151 -19 354 l-6 297 29 80 c41 116
92 195 189 291 98 96 180 149 296 187 72 24 95 27 225 27 129 0 153 -3 222
-26 209 -70 374 -215 469 -413 68 -142 74 -179 73 -450 -1 -279 -11 -334 -91
-495 -38 -79 -61 -110 -133 -181 -72 -73 -101 -94 -180 -132 -52 -25 -112 -49
-133 -53 -49 -8 -80 -34 -72 -57 10 -25 52 -22 145 12 253 93 433 297 503 569
20 79 22 111 22 352 l0 265 -34 97 c-122 354 -429 579 -791 580 -146 1 -225
-17 -358 -83 -175 -87 -332 -257 -399 -433 l-28 -74 -115 -4 c-63 -2 -117 -3
-119 -1 -7 5 36 157 69 242 78 203 273 403 493 506 276 130 614 133 901 9 294
-127 510 -379 591 -689 78 -303 11 -668 -169 -913 -25 -34 -46 -66 -46 -72 0
-9 31 -30 44 -30 14 0 101 132 141 210 90 180 120 319 120 545 -1 196 -16 278
-83 433 -130 300 -355 506 -670 612 -172 57 -389 74 -568 44z m-604 -1077 c0
-63 3 -202 7 -310 l6 -197 -120 0 c-137 0 -200 15 -254 59 -61 51 -70 82 -70
243 1 114 5 148 20 182 44 98 126 135 299 136 l112 0 0 -113z m841 -906 c20
-16 22 -23 13 -38 -9 -15 -27 -19 -97 -21 -79 -3 -87 -1 -97 18 -9 18 -8 25 6
41 25 27 142 27 175 0z"/>
<path d="M6542 6800 c-35 -16 -43 -24 -40 -42 4 -27 35 -29 105 -7 49 15 98 4
158 -36 46 -32 78 -26 73 13 -2 21 -16 33 -66 59 -78 40 -160 45 -230 13z"/>
<path d="M4000 6771 c-83 -26 -141 -74 -181 -151 -24 -45 -24 -48 -29 -465 -5
-358 -8 -426 -22 -462 -20 -50 -42 -86 -80 -131 -30 -35 -38 -88 -16 -110 32
-32 178 0 376 81 l127 52 670 0 670 0 50 27 c62 32 98 70 124 128 20 43 21 64
21 440 0 363 -2 398 -19 436 -26 58 -72 106 -128 134 l-48 25 -745 2 c-410 1
-756 -2 -770 -6z m1529 -80 c50 -26 97 -81 110 -128 15 -53 14 -715 0 -768
-15 -55 -82 -120 -139 -135 -34 -9 -210 -11 -690 -9 l-645 3 -141 -56 c-126
-51 -242 -88 -273 -88 -6 0 5 24 24 54 20 29 47 86 61 126 24 71 24 75 24 463
0 363 2 395 19 434 21 44 66 90 109 109 20 9 218 13 765 13 711 1 739 0 776
-18z"/>
<path d="M4160 6375 c-6 -8 -10 -22 -8 -32 3 -17 35 -18 597 -21 584 -2 621 0
621 29 0 4 -7 15 -16 23 -14 14 -82 16 -598 16 -498 0 -585 -2 -596 -15z"/>
<path d="M4157 6043 c-13 -12 -7 -42 11 -51 12 -6 762 -9 823 -3 14 2 19 34 8
47 -9 12 -86 14 -424 14 -226 0 -415 -3 -418 -7z"/>
<path d="M6610 6470 c-15 -15 -20 -33 -20 -73 0 -83 43 -124 83 -79 25 28 23
126 -3 152 -11 11 -24 20 -30 20 -5 0 -19 -9 -30 -20z"/>
<path d="M1972 5838 c-19 -19 -16 -163 4 -182 20 -20 48 -20 64 -1 16 19 14
163 -2 182 -13 16 -50 17 -66 1z"/>
<path d="M2542 5838 c-19 -19 -16 -163 4 -182 18 -19 28 -20 55 -6 16 9 19 22
19 93 0 87 -8 107 -45 107 -12 0 -26 -5 -33 -12z"/>
<path d="M2054 5405 c-10 -24 2 -42 43 -68 59 -37 111 -51 194 -51 68 -1 84 3
144 34 80 41 98 62 73 87 -16 15 -22 14 -89 -20 -58 -30 -82 -37 -129 -37 -63
0 -126 18 -170 50 -33 24 -58 26 -66 5z"/>
</g>
</svg>
