<?xml version="1.0" standalone="no"?>
<!DOCTYPE svg PUBLIC "-//W3C//DTD SVG 20010904//EN"
 "http://www.w3.org/TR/2001/REC-SVG-20010904/DTD/svg10.dtd">
<svg version="1.0" xmlns="http://www.w3.org/2000/svg"
 width="1536.000000pt" height="1024.000000pt" viewBox="0 0 1536.000000 1024.000000"
 preserveAspectRatio="xMidYMid meet">

<g transform="translate(0.000000,1024.000000) scale(0.100000,-0.100000)"
fill="#2563EB" stroke="none">
<path d="M7395 8903 c-38 -8 -104 -28 -146 -44 -81 -31 -216 -118 -212 -137 2
-6 -3 -9 -10 -6 -16 6 -69 -48 -65 -67 2 -8 -4 -13 -12 -12 -34 5 -144 -185
-181 -312 -16 -54 -22 -109 -26 -236 l-6 -167 -111 -4 c-123 -4 -156 -15 -225
-74 -38 -33 -57 -64 -28 -48 7 4 9 3 4 -2 -5 -5 -14 -9 -20 -9 -7 0 -22 -25
-34 -55 l-23 -55 3 -740 2 -740 23 -47 c30 -61 85 -119 142 -149 l45 -24 1060
0 1060 0 48 25 c55 28 106 79 139 142 l23 43 0 760 0 760 -27 51 c-34 64 -105
128 -165 148 -30 10 -82 16 -145 16 l-98 0 0 123 c0 204 -32 338 -115 479
-112 191 -317 337 -539 383 -94 19 -268 18 -361 -2z m-45 -33 c-8 -5 -19 -10
-25 -10 -5 0 -3 5 5 10 8 5 20 10 25 10 6 0 3 -5 -5 -10z m-75 -20 c-3 -5 -12
-10 -18 -10 -7 0 -6 4 3 10 19 12 23 12 15 0z m490 -75 c206 -53 399 -222 476
-417 34 -86 49 -183 49 -314 l0 -124 -715 0 -715 0 0 124 c0 157 18 246 74
363 94 196 281 337 501 379 85 16 245 11 330 -11z m80 5 c-3 -5 -12 -10 -18
-10 -7 0 -6 4 3 10 19 12 23 12 15 0z m140 -78 c-3 -3 -11 0 -18 7 -9 10 -8
11 6 5 10 -3 15 -9 12 -12z m160 -21 c-6 -5 -25 10 -25 20 0 5 6 4 14 -3 8 -7
12 -15 11 -17z m-1111 -33 c-3 -5 -12 -4 -20 3 -7 6 -11 15 -8 21 3 5 12 4 20
-3 7 -6 11 -15 8 -21z m1120 -16 c3 -5 -1 -9 -9 -9 -8 0 -12 4 -9 9 3 4 7 8 9
8 2 0 6 -4 9 -8z m-44 -8 c0 -8 -19 -13 -24 -6 -3 5 1 9 9 9 8 0 15 -2 15 -3z
m-1270 -205 c0 -6 -4 -7 -10 -4 -5 3 -10 11 -10 16 0 6 5 7 10 4 6 -3 10 -11
10 -16z m1814 -653 c21 -16 47 -48 57 -72 19 -41 19 -74 17 -762 l-3 -718 -27
-41 c-16 -24 -44 -49 -70 -62 -44 -21 -46 -21 -1051 -21 -615 0 -1015 4 -1031
10 -46 17 -103 78 -115 122 -9 32 -11 232 -9 749 l3 705 27 42 c16 23 45 50
65 61 37 20 57 20 1069 18 l1031 -2 37 -29z m106 8 c0 -8 -19 -13 -24 -6 -3 5
1 9 9 9 8 0 15 -2 15 -3z m-2330 -1718 c-7 -7 -13 -7 -20 0 -6 6 -3 10 10 10
13 0 16 -4 10 -10z"/>
<path d="M7441 7328 c-104 -54 -151 -138 -151 -268 0 -78 29 -149 85 -204 l38
-38 -2 -96 c-3 -142 28 -215 106 -248 76 -32 160 -1 200 75 20 39 23 58 23
156 l0 111 36 35 c114 109 124 298 21 415 -58 66 -105 87 -207 92 -81 4 -88 2
-149 -30z m234 -116 c15 -12 31 -19 35 -17 5 3 12 0 16 -6 4 -8 3 -9 -4 -5
-17 10 -15 1 8 -36 43 -70 14 -174 -64 -227 l-45 -32 -3 -146 c-3 -126 -5
-147 -20 -157 -13 -8 -23 -8 -35 0 -15 10 -18 30 -20 140 -2 71 -5 139 -8 151
-3 12 -23 32 -44 44 -96 54 -113 200 -31 274 37 33 72 45 131 42 39 -2 64 -10
84 -25z m-249 -24 c5 -7 3 -8 -6 -3 -10 6 -12 4 -6 -11 5 -14 4 -16 -5 -7 -6
6 -8 16 -5 22 9 14 13 14 22 -1z m-76 -268 c6 -11 8 -20 6 -20 -3 0 -10 9 -16
20 -6 11 -8 20 -6 20 3 0 10 -9 16 -20z m150 -27 c0 -7 -39 17 -46 28 -3 6 5
3 20 -6 14 -10 26 -19 26 -22z m-69 -60 c13 -16 12 -17 -3 -4 -10 7 -18 15
-18 17 0 8 8 3 21 -13z m71 -315 c-9 -9 -15 -9 -24 1 -11 10 -9 11 6 5 16 -6
18 -4 12 12 -6 15 -5 17 5 7 10 -10 10 -16 1 -25z"/>
<path d="M3918 7659 c-490 -72 -810 -545 -724 -1070 28 -165 129 -441 156
-424 5 3 8 0 5 -7 -7 -17 63 -123 125 -191 55 -60 67 -100 47 -150 -20 -47
-68 -83 -168 -124 -609 -250 -764 -340 -885 -509 -119 -166 -199 -474 -244
-937 -17 -167 -15 -218 6 -234 27 -20 3632 -19 3659 1 16 12 19 25 17 87 -9
276 -75 665 -148 871 -32 90 -92 200 -104 193 -6 -3 -7 1 -4 9 9 24 -129 155
-233 219 -116 72 -248 135 -483 231 -262 108 -291 123 -317 171 -27 47 -30
116 -8 135 9 7 13 21 10 30 -3 10 2 23 12 31 16 13 17 12 4 -4 -8 -9 -11 -20
-9 -23 10 -9 93 95 141 174 106 178 158 362 165 579 5 157 -5 236 -44 353 -44
130 -142 298 -166 283 -7 -3 -8 -1 -4 5 9 15 -64 94 -81 88 -8 -3 -12 -2 -9 3
13 21 -117 107 -229 152 -153 61 -327 82 -487 58z m7 -89 c-3 -5 -1 -10 6 -10
7 0 10 -3 6 -6 -9 -9 -28 6 -22 17 4 5 8 9 11 9 3 0 2 -4 -1 -10z m102 -6 c-3
-3 -12 -4 -19 -1 -8 3 -5 6 6 6 11 1 17 -2 13 -5z m86 -1 c-7 -2 -19 -2 -25 0
-7 3 -2 5 12 5 14 0 19 -2 13 -5z m151 -44 c82 -21 179 -64 233 -105 34 -26
48 -31 37 -12 -4 7 -3 8 5 4 6 -4 9 -11 7 -15 -3 -4 18 -30 46 -57 91 -89 173
-235 209 -374 9 -36 14 -109 14 -215 0 -135 -4 -173 -23 -245 -54 -197 -137
-348 -261 -470 -132 -130 -256 -186 -437 -197 -128 -7 -226 13 -340 72 -46 23
-86 39 -91 36 -4 -3 -5 -2 -1 3 4 5 -21 36 -56 68 -61 55 -154 184 -177 245
-8 22 -12 25 -20 13 -8 -12 -9 -10 -4 6 3 12 -5 45 -20 77 -57 129 -92 329
-81 465 42 511 472 825 960 701z m161 13 c-3 -3 -11 0 -18 7 -9 10 -8 11 6 5
10 -3 15 -9 12 -12z m249 -141 c3 -5 -1 -14 -8 -20 -12 -10 -14 -9 -11 6 2 10
4 19 4 21 2 5 10 2 15 -7z m-1144 -35 c0 -2 -8 -10 -17 -17 -16 -13 -17 -12
-4 4 13 16 21 21 21 13z m1307 -518 c-3 -8 -6 -5 -6 6 -1 11 2 17 5 13 3 -3 4
-12 1 -19z m-1489 -653 c-3 -3 -9 2 -12 12 -6 14 -5 15 5 6 7 -7 10 -15 7 -18z
m86 -93 c3 -5 -1 -9 -9 -9 -8 0 -12 4 -9 9 3 4 7 8 9 8 2 0 6 -4 9 -8z m56 -6
c0 -2 -8 -10 -17 -17 -16 -13 -17 -12 -4 4 13 16 21 21 21 13z m1101 -99 c-10
-9 -11 -8 -5 6 3 10 9 15 12 12 3 -3 0 -11 -7 -18z m-98 -194 c9 -54 64 -128
117 -157 25 -13 92 -43 150 -66 263 -104 515 -224 620 -293 207 -138 290 -302
359 -717 18 -107 51 -383 51 -426 0 -12 -257 -14 -1725 -14 -949 0 -1725 2
-1725 5 0 27 34 320 45 391 54 334 116 513 224 641 20 24 36 48 36 53 0 5 7
15 15 22 12 11 12 11 1 -4 -22 -29 -6 -21 66 31 102 74 345 189 701 330 45 19
101 48 125 66 41 32 97 117 97 149 0 21 3 20 43 -7 52 -35 187 -76 282 -86
103 -10 236 2 320 31 63 21 153 63 170 79 16 16 22 10 28 -28z m-546 21 c-3
-3 -12 -4 -19 -1 -8 3 -5 6 6 6 11 1 17 -2 13 -5z m-447 -74 c-15 -12 -19 -20
-11 -20 8 0 12 -3 8 -6 -3 -3 -13 -2 -22 3 -13 8 -12 11 10 23 14 7 25 18 25
23 0 6 3 7 7 3 4 -4 -3 -16 -17 -26z m563 -17 c-7 -2 -19 -2 -25 0 -7 3 -2 5
12 5 14 0 19 -2 13 -5z m1521 -474 c4 -4 -3 -6 -17 -6 -20 0 -23 2 -14 12 7 7
14 10 17 7 3 -4 9 -10 14 -13z m-59 -41 c5 4 5 1 1 -6 -6 -10 -11 -10 -22 -1
-8 6 -14 14 -14 16 0 3 6 0 13 -6 8 -6 18 -7 22 -3z m68 -23 c-3 -9 -8 -14
-10 -11 -3 3 -2 9 2 15 9 16 15 13 8 -4z m68 -58 c-10 -9 -11 -8 -5 6 3 10 9
15 12 12 3 -3 0 -11 -7 -18z"/>
<path d="M8550 5540 c-316 -5 -338 -6 -381 -27 -66 -31 -113 -76 -138 -132
-12 -28 -47 -193 -81 -378 -100 -540 -278 -1502 -325 -1753 -24 -129 -76 -408
-115 -620 -39 -212 -76 -409 -82 -437 l-11 -53 -1382 0 c-1326 0 -1383 -1
-1398 -18 -35 -39 -8 -176 52 -271 44 -69 126 -143 193 -174 129 -61 -189 -57
4171 -57 3974 0 3987 0 4007 20 24 24 25 48 4 78 -15 22 -19 22 -247 23 -128
1 -224 3 -214 6 20 5 49 58 66 118 11 39 62 327 157 885 25 146 68 391 95 545
27 154 93 521 145 815 52 294 120 675 150 845 59 334 61 364 21 443 -26 54
-101 116 -160 134 -33 10 -476 13 -2117 13 -1141 0 -2226 -2 -2410 -5z m4531
-147 c35 -23 52 -46 63 -88 7 -25 -15 -154 -249 -1460 -94 -529 -166 -941
-260 -1490 -20 -115 -37 -210 -38 -211 -9 -7 -5046 -13 -5050 -7 -3 5 -2 27 3
49 5 21 20 100 34 174 33 178 190 1025 261 1405 31 165 76 408 100 540 24 132
56 303 70 380 14 77 46 250 71 384 25 134 50 253 56 265 13 24 30 39 73 64 28
16 177 17 2390 22 1298 3 2378 3 2400 1 22 -2 56 -15 76 -28z m-5024 -395 c-3
-8 -6 -5 -6 6 -1 11 2 17 5 13 3 -3 4 -12 1 -19z m-10 -50 c-3 -8 -6 -5 -6 6
-1 11 2 17 5 13 3 -3 4 -12 1 -19z m-170 -460 c-3 -8 -6 -5 -6 6 -1 11 2 17 5
13 3 -3 4 -12 1 -19z m5140 -80 c-3 -8 -6 -5 -6 6 -1 11 2 17 5 13 3 -3 4 -12
1 -19z m-5320 -1360 c-3 -8 -6 -5 -6 6 -1 11 2 17 5 13 3 -3 4 -12 1 -19z
m5010 -390 c-3 -8 -6 -5 -6 6 -1 11 2 17 5 13 3 -3 4 -12 1 -19z m-4084 -545
c-13 -2 -33 -2 -45 0 -13 2 -3 4 22 4 25 0 35 -2 23 -4z m320 0 c-13 -2 -33
-2 -45 0 -13 2 -3 4 22 4 25 0 35 -2 23 -4z m320 0 c-13 -2 -33 -2 -45 0 -13
2 -3 4 22 4 25 0 35 -2 23 -4z m400 0 c-13 -2 -33 -2 -45 0 -13 2 -3 4 22 4
25 0 35 -2 23 -4z m400 0 c-13 -2 -33 -2 -45 0 -13 2 -3 4 22 4 25 0 35 -2 23
-4z m160 0 c-13 -2 -33 -2 -45 0 -13 2 -3 4 22 4 25 0 35 -2 23 -4z m220 0
c-24 -2 -62 -2 -85 0 -24 2 -5 4 42 4 47 0 66 -2 43 -4z m-1580 -80 c-13 -2
-33 -2 -45 0 -13 2 -3 4 22 4 25 0 35 -2 23 -4z m1267 -38 c0 -11 -12 -47 -25
-80 -28 -68 -28 -68 -16 -60 5 3 12 1 16 -4 3 -6 -4 -8 -16 -6 -14 3 -35 -7
-59 -28 -21 -18 -60 -41 -86 -52 -48 -20 -75 -20 -2444 -23 -1762 -2 -2411 0
-2455 8 -75 15 -144 50 -202 103 -44 40 -93 121 -93 152 0 15 222 16 2690 13
2682 -3 2690 -3 2690 -23z m2443 18 c9 -15 -32 -153 -55 -183 -12 -17 -47 -43
-78 -58 l-55 -27 -1140 -3 c-931 -2 -1135 0 -1115 11 51 26 120 165 120 241
l0 26 1159 0 c638 0 1162 -3 1164 -7z m-7752 -160 c13 -16 12 -17 -3 -4 -17
13 -22 21 -14 21 2 0 10 -8 17 -17z m-19 -88 c2 3 5 -2 5 -10 0 -11 -8 -8 -29
12 -15 15 -28 29 -28 32 0 2 10 -5 23 -17 13 -12 26 -20 29 -17z m5238 30 c0
-2 -10 -9 -22 -15 -22 -11 -22 -10 -4 4 21 17 26 19 26 11z m-203 -71 c-3 -3
-12 -4 -19 -1 -8 3 -5 6 6 6 11 1 17 -2 13 -5z m-4764 -81 c-7 -2 -19 -2 -25
0 -7 3 -2 5 12 5 14 0 19 -2 13 -5z"/>
<path d="M8325 5241 c-51 -22 -45 1 -145 -548 -17 -93 -53 -285 -80 -428 -27
-143 -76 -408 -110 -590 -33 -181 -76 -411 -94 -510 -143 -766 -141 -751 -123
-779 l17 -26 2315 0 2314 0 25 23 c22 20 29 47 66 267 36 208 149 852 260
1470 16 91 47 269 70 395 22 127 57 318 76 425 43 237 44 268 14 292 -21 17
-118 18 -2304 17 -1254 0 -2290 -4 -2301 -8z m4500 -123 c-3 -7 -18 -89 -34
-183 -28 -163 -149 -843 -351 -1975 -21 -118 -49 -275 -61 -347 l-24 -133
-2233 0 c-2122 0 -2233 1 -2228 18 3 9 32 166 66 347 33 182 71 389 85 460 20
109 146 784 240 1290 50 269 95 518 95 526 0 5 996 9 2225 9 1775 0 2223 -3
2220 -12z m-4468 -40 c-3 -8 -6 -5 -6 6 -1 11 2 17 5 13 3 -3 4 -12 1 -19z
m-60 -300 c-3 -8 -6 -5 -6 6 -1 11 2 17 5 13 3 -3 4 -12 1 -19z m4390 -550
c-3 -8 -6 -5 -6 6 -1 11 2 17 5 13 3 -3 4 -12 1 -19z m10 -430 c-3 -8 -6 -5
-6 6 -1 11 2 17 5 13 3 -3 4 -12 1 -19z m-70 -390 c-3 -8 -6 -5 -6 6 -1 11 2
17 5 13 3 -3 4 -12 1 -19z m-4600 -110 c-3 -8 -6 -5 -6 6 -1 11 2 17 5 13 3
-3 4 -12 1 -19z m-70 -380 c-3 -8 -6 -5 -6 6 -1 11 2 17 5 13 3 -3 4 -12 1
-19z m4500 -480 c-3 -8 -6 -5 -6 6 -1 11 2 17 5 13 3 -3 4 -12 1 -19z m-4653
-44 c3 -8 2 -12 -4 -9 -6 3 -10 10 -10 16 0 14 7 11 14 -7z m2679 -21 c-134
-2 -352 -2 -485 0 -134 1 -25 2 242 2 267 0 376 -1 243 -2z m380 0 c-13 -2
-33 -2 -45 0 -13 2 -3 4 22 4 25 0 35 -2 23 -4z m300 0 c-24 -2 -62 -2 -85 0
-24 2 -5 4 42 4 47 0 66 -2 43 -4z"/>
<path d="M10311 4375 c-71 -20 -168 -68 -215 -107 -32 -26 -35 -32 -24 -47 12
-14 11 -15 -5 -2 -15 12 -21 9 -52 -24 -19 -20 -32 -41 -29 -47 4 -7 2 -8 -4
-4 -25 15 -141 -188 -168 -295 -74 -286 88 -589 347 -648 115 -27 243 -7 374
59 109 54 191 131 268 248 95 144 129 244 130 377 1 101 -16 172 -61 259 -50
95 -115 159 -210 204 -73 35 -83 37 -187 39 -73 2 -128 -2 -164 -12z m172 -2
c-7 -2 -21 -2 -30 0 -10 3 -4 5 12 5 17 0 24 -2 18 -5z m-146 -99 c-3 -3 -12
-4 -19 -1 -8 3 -5 6 6 6 11 1 17 -2 13 -5z m280 -38 c117 -64 184 -172 191
-310 6 -106 -10 -178 -61 -279 -54 -108 -181 -238 -277 -284 -166 -79 -320
-65 -428 40 -114 110 -153 308 -92 469 28 76 105 191 168 252 28 27 48 54 45
59 -3 6 -1 7 5 3 7 -4 33 5 59 20 85 51 139 64 243 61 83 -2 102 -6 147 -31z
m280 -208 c-3 -8 -6 -5 -6 6 -1 11 2 17 5 13 3 -3 4 -12 1 -19z m-117 -537
c-5 -11 -15 -23 -21 -27 -6 -3 -3 5 6 20 20 30 30 35 15 7z m-108 -72 c-11
-10 -19 -12 -24 -6 -9 15 -3 23 21 23 19 0 19 -1 3 -17z m-763 -23 c-3 -3 -11
5 -18 17 -13 21 -12 21 5 5 10 -10 16 -20 13 -22z m772 -19 c-10 -9 -11 -8 -5
6 3 10 9 15 12 12 3 -3 0 -11 -7 -18z"/>
</g>
</svg>
