<?xml version="1.0" standalone="no"?>
<!DOCTYPE svg PUBLIC "-//W3C//DTD SVG 20010904//EN"
 "http://www.w3.org/TR/2001/REC-SVG-20010904/DTD/svg10.dtd">
<svg version="1.0" xmlns="http://www.w3.org/2000/svg"
 width="1024.000000pt" height="1024.000000pt" viewBox="0 0 1024.000000 1024.000000"
 preserveAspectRatio="xMidYMid meet">

<g transform="translate(0.000000,1024.000000) scale(0.100000,-0.100000)"
fill="#2563EB" stroke="none">
<path d="M3348 8461 c-122 -39 -214 -122 -273 -246 -40 -85 -55 -159 -55 -280
0 -167 32 -269 113 -361 79 -89 163 -131 300 -149 l47 -6 0 -115 c0 -130 8
-154 50 -154 24 0 49 22 154 133 l125 133 80 10 c183 25 330 154 375 329 20
76 21 309 2 380 -45 171 -182 305 -340 334 -33 6 -163 11 -290 10 -196 0 -240
-3 -288 -18z m644 -99 c78 -38 139 -101 176 -182 24 -50 26 -70 30 -203 3
-128 1 -156 -17 -215 -25 -80 -74 -149 -135 -192 -60 -40 -109 -57 -195 -66
l-70 -7 -111 -112 -110 -113 0 96 c-1 131 -7 139 -115 144 -143 6 -248 75
-313 208 -26 53 -27 61 -27 215 l0 160 33 70 c55 116 156 202 266 225 22 5
149 8 281 7 l240 -2 67 -33z"/>
<path d="M3450 8169 c-55 -22 -92 -74 -110 -154 -22 -97 26 -179 168 -288 53
-41 106 -84 116 -96 30 -33 54 -25 121 37 34 31 90 82 126 113 85 74 123 143
117 210 -7 69 -51 138 -108 167 -53 28 -130 25 -182 -5 -31 -18 -32 -18 -77 4
-48 25 -126 30 -171 12z m170 -107 c33 -40 57 -40 89 -1 49 58 151 47 186 -21
36 -70 4 -138 -112 -232 -37 -31 -79 -67 -91 -81 l-24 -25 -66 51 c-171 134
-207 186 -183 266 18 61 54 84 120 79 46 -4 59 -10 81 -36z"/>
<path d="M6920 7885 c-227 -39 -465 -128 -555 -206 -45 -40 -65 -78 -65 -124
0 -49 21 -86 75 -132 l46 -39 -20 -75 c-29 -106 -43 -235 -41 -379 1 -69 -1
-183 -5 -255 -8 -141 3 -216 45 -328 26 -70 123 -217 177 -269 54 -52 147
-105 226 -130 38 -11 65 -24 60 -28 -4 -4 -52 -24 -107 -45 -115 -44 -297
-134 -378 -188 -81 -54 -187 -170 -230 -252 -78 -149 -143 -409 -258 -1035
-39 -212 -73 -395 -76 -407 -4 -23 -5 -23 -213 -23 l-209 0 15 78 c68 363 78
404 106 419 15 7 27 15 27 18 0 2 9 66 20 141 15 103 17 140 9 150 -9 11 -64
14 -270 14 l-259 0 0 91 c0 69 5 102 21 138 l20 48 73 12 c138 22 253 94 325
202 54 81 81 170 81 271 0 111 -7 122 -78 114 -243 -28 -373 -131 -427 -341
-8 -32 -15 -76 -15 -96 0 -43 -26 -73 -37 -43 -3 11 -14 31 -24 45 -17 24 -17
34 -8 85 19 103 -9 251 -67 351 -50 87 -174 171 -323 219 -115 37 -119 34
-141 -125 -19 -140 25 -267 129 -372 64 -64 129 -100 223 -125 34 -10 74 -27
86 -38 57 -50 84 -152 86 -321 l1 -110 -259 -5 c-218 -4 -260 -7 -268 -20 -7
-10 -4 -63 8 -155 l19 -140 33 -10 c17 -5 32 -13 32 -17 0 -4 17 -99 39 -210
21 -112 41 -220 44 -241 l6 -37 -342 2 -341 3 -13 80 c-8 44 -40 233 -74 420
-124 704 -187 912 -325 1079 -90 110 -261 221 -464 303 -22 9 -16 12 55 28
231 51 401 138 444 228 28 59 27 75 -18 187 -52 128 -78 239 -91 385 -23 258
-33 323 -61 410 -40 126 -90 206 -190 305 -406 404 -1039 319 -1296 -175 -57
-110 -79 -183 -103 -332 -30 -186 -66 -339 -117 -498 -52 -166 -57 -222 -23
-283 44 -77 239 -209 353 -237 27 -7 38 -25 15 -25 -26 0 -337 -160 -424 -218
-170 -114 -281 -260 -324 -425 -32 -127 -73 -553 -101 -1066 -13 -215 -12
-224 6 -237 16 -12 615 -14 3940 -14 3036 0 3924 3 3933 12 18 18 14 54 -7 69
-16 12 -34 98 -111 524 -130 729 -160 857 -233 1001 -65 128 -202 247 -391
339 -121 60 -355 140 -507 175 -83 19 -98 25 -112 50 -32 53 -47 140 -47 270
l0 126 40 23 c145 81 284 292 319 485 15 83 13 228 -4 311 -18 85 -87 230
-157 332 -105 152 -247 246 -430 284 -111 22 -377 25 -498 4z m505 -84 c44
-12 103 -32 130 -46 150 -73 303 -271 365 -470 28 -91 31 -249 6 -350 -17 -67
-91 -235 -105 -235 -3 0 -7 22 -8 50 -3 68 -37 143 -85 186 -36 32 -45 36 -80
31 -22 -3 -63 -19 -90 -36 -27 -17 -51 -31 -52 -31 -2 0 -24 42 -49 93 -55
111 -71 182 -61 276 8 81 -4 109 -57 136 -23 13 -38 14 -62 6 -105 -33 -209
-45 -382 -45 -157 -1 -191 2 -263 22 -108 29 -191 71 -231 117 -36 41 -35 63
6 107 69 74 371 180 593 208 110 15 334 4 425 -19z m-4625 -261 c187 -53 370
-192 458 -350 68 -121 86 -197 108 -433 19 -215 45 -345 91 -456 52 -128 53
-145 8 -191 -56 -57 -226 -133 -349 -156 l-39 -7 42 44 c121 123 201 421 188
694 -9 196 -64 354 -177 508 -65 87 -88 90 -126 15 -73 -145 -290 -302 -513
-372 -90 -29 -144 -33 -257 -21 -60 6 -78 4 -116 -13 -104 -46 -148 -183 -94
-298 27 -59 85 -121 121 -130 l25 -6 0 -162 c0 -113 -5 -179 -15 -221 -9 -33
-18 -61 -20 -64 -11 -11 -117 23 -204 65 -117 57 -221 151 -221 200 0 17 22
101 50 187 43 137 64 229 126 552 40 206 131 370 269 485 65 54 213 127 295
145 87 20 251 13 350 -15z m3850 -236 c122 -27 385 -25 530 5 153 31 140 38
139 -82 0 -125 20 -189 105 -332 66 -111 77 -115 142 -55 73 67 126 54 159
-39 51 -145 -43 -297 -177 -289 -72 5 -81 -63 -9 -70 l31 -3 0 -122 c0 -185
39 -314 112 -371 l33 -26 -24 -45 c-86 -162 -350 -271 -536 -221 -134 35 -206
109 -218 222 l-6 50 72 11 c88 14 232 84 300 146 50 46 57 66 31 91 -18 19
-38 11 -97 -40 -51 -43 -169 -100 -237 -115 -167 -36 -340 48 -455 221 -55 82
-103 207 -111 288 -3 31 -7 72 -9 90 -1 18 1 66 7 105 5 40 10 160 11 267 2
152 7 209 21 260 27 98 30 102 69 86 17 -8 70 -22 117 -32z m-3516 -264 c78
-150 101 -264 93 -469 -12 -328 -122 -552 -304 -621 -84 -32 -201 -30 -283 5
-62 26 -94 26 -104 0 -10 -27 5 -44 59 -69 65 -31 125 -45 192 -46 l52 0 20
-55 c37 -98 25 -165 -40 -219 -82 -70 -200 -98 -319 -77 -151 27 -306 134
-359 248 l-24 52 32 27 c73 61 101 167 101 380 0 188 -4 212 -43 233 -112 61
-159 174 -107 259 27 44 61 55 140 47 158 -18 266 7 453 102 167 86 299 190
353 281 l19 32 17 -22 c10 -13 33 -52 52 -88z m4382 -560 c0 -12 -4 -16 -9
-11 -5 5 -6 14 -3 20 10 15 12 14 12 -9z m421 -595 c67 -19 177 -57 244 -85
316 -128 451 -267 529 -546 24 -88 240 -1237 240 -1279 0 -8 -95 -11 -352 -11
l-353 1 -3 285 c-2 254 -4 286 -19 298 -22 16 -28 15 -47 -4 -14 -13 -16 -55
-16 -300 l0 -284 -887 2 -888 3 0 397 c0 283 -3 400 -11 408 -7 7 -22 10 -35
8 l-24 -3 -5 -405 -5 -405 -208 0 c-203 0 -208 0 -203 20 3 11 41 216 86 455
88 478 122 634 170 785 92 286 216 403 604 564 98 41 116 43 116 15 0 -29 39
-91 85 -133 186 -172 516 -138 731 74 54 53 76 83 90 123 10 28 23 52 29 52 6
0 65 -16 132 -35z m-3248 -132 c114 -66 160 -123 193 -242 19 -70 24 -176 8
-186 -12 -7 -113 21 -165 47 -142 71 -227 221 -210 372 4 33 9 64 11 68 6 10
109 -27 163 -59z m-1459 -71 c251 -140 352 -302 443 -713 41 -180 177 -947
177 -994 0 -13 -118 -15 -950 -15 l-950 0 0 459 c0 404 -2 461 -16 475 -8 9
-21 16 -28 16 -35 0 -36 -17 -36 -487 l0 -463 -310 0 -310 0 0 40 c0 104 63
920 81 1044 33 239 132 395 329 521 67 43 364 195 381 195 4 0 10 -12 14 -27
10 -42 72 -129 127 -178 69 -62 194 -122 297 -142 148 -29 298 7 395 97 66 61
90 117 83 193 -3 34 -9 72 -13 84 -6 21 1 19 112 -26 66 -26 144 -62 174 -79z
m2230 -264 c-40 -107 -93 -169 -190 -219 -40 -21 -145 -51 -152 -43 -2 2 -1
36 3 76 10 101 43 182 96 240 53 55 107 84 195 102 l63 13 3 -57 c2 -39 -4
-74 -18 -112z m30 -718 c0 -5 -5 -43 -11 -85 l-11 -75 -464 0 c-432 0 -463 1
-468 18 -2 9 -8 47 -12 85 l-6 67 486 0 c303 0 486 -4 486 -10z m-117 -412
c-18 -95 -39 -206 -45 -245 l-12 -73 -95 -1 c-53 0 -192 -2 -310 -2 l-215 -2
-12 85 c-7 47 -28 158 -46 248 l-34 162 401 0 402 0 -34 -172z"/>
<path d="M6556 6898 c-33 -47 -14 -108 35 -108 25 0 33 6 45 35 12 30 12 40 2
63 -18 36 -60 42 -82 10z"/>
<path d="M6991 6877 c-37 -18 -48 -63 -24 -95 27 -36 39 -37 68 -8 49 49 13
132 -44 103z"/>
<path d="M6664 6675 c-7 -19 -14 -55 -14 -81 0 -41 5 -51 39 -85 40 -40 76
-50 99 -27 21 21 13 47 -18 63 -44 23 -53 47 -35 91 18 44 6 74 -31 74 -19 0
-28 -8 -40 -35z"/>
<path d="M7045 6430 c-10 -11 -39 -34 -63 -50 -51 -34 -103 -39 -192 -18 -43
10 -53 9 -66 -4 -27 -27 -9 -55 48 -74 108 -36 214 -13 296 64 36 33 44 85 16
96 -21 8 -18 9 -39 -14z"/>
<path d="M2572 6648 c-36 -36 15 -88 87 -88 55 0 91 22 91 54 0 35 -22 49 -54
35 -20 -9 -35 -9 -65 -1 -47 15 -44 15 -59 0z"/>
<path d="M2991 6639 c-12 -33 -5 -44 39 -64 66 -30 136 -5 128 47 -3 20 -9 23
-48 25 -25 1 -60 5 -77 8 -28 6 -34 4 -42 -16z"/>
<path d="M2920 6390 c-15 -28 4 -60 35 -60 31 0 50 32 35 60 -6 12 -21 20 -35
20 -14 0 -29 -8 -35 -20z"/>
<path d="M2630 6255 c-17 -20 -5 -49 37 -86 52 -45 110 -69 171 -69 84 0 167
52 160 102 -4 33 -40 34 -85 4 -60 -41 -107 -36 -182 19 -66 48 -82 53 -101
30z"/>
<path d="M7883 5109 c-7 -7 -13 -20 -13 -29 0 -32 23 -40 114 -40 l89 0 -19
-21 c-10 -12 -126 -125 -257 -251 l-237 -230 -89 76 c-49 42 -97 76 -107 76
-22 0 -544 -518 -544 -540 0 -20 20 -40 40 -40 8 0 78 63 155 141 77 77 188
186 248 241 l107 100 38 -28 c20 -16 60 -50 89 -77 28 -27 59 -47 67 -45 9 1
146 130 305 286 159 155 291 282 293 282 2 0 3 -50 3 -111 0 -96 3 -113 18
-123 12 -8 22 -8 35 0 15 10 17 31 20 164 1 85 -1 157 -5 161 -5 4 -82 11
-173 14 -130 6 -168 4 -177 -6z"/>
</g>
</svg>
